# xmcd CD database file
#
# Track frame offsets:
#	210
#	17017
#	38164
#	55919
#	84272
#	102641
#	120794
#	132879
#	151028
#	167240
#	180764
#	200647
#	225497
#
# Disc length: 3457 seconds
#
# Revision: 0
# Processed by: cddbd v1.4PL0 Copyright (c) Steve Scherf et al.
# Submitted via: CDex 1.50Beta7
#
DISCID=930d7f0d
DTITLE=The Austrian Showtime Boogie Woogie Projekt - Boogie Passion
DYEAR=2002
DGENRE=Jazz
TTITLE0=Jump and Jive
TTITLE1=Boogie Passion
TTITLE2=Octave Stamp
TTITLE3=Rimshot Boogie
TTITLE4=She Got Long Legs
TTITLE5=I'm The Boogie Man
TTITLE6=Cow Cow Blues
TTITLE7=Tin Roof Blues
TTITLE8=6th Avenue Express
TTITLE9=Funk and Walk
TTITLE10=Dirty Finger Boogie
TTITLE11=Tell Me, Partner
TTITLE12=Don't Shoot The Drummer
EXTD=YEAR: 2002
EXTT0=
EXTT1=
EXTT2=
EXTT3=
EXTT4=
EXTT5=
EXTT6=
EXTT7=
EXTT8=
EXTT9=
EXTT10=
EXTT11=
EXTT12=
PLAYORDER=
